<?xml version="1.0" encoding="utf-8"?>
<!-- Generator: Adobe Illustrator 21.1.0, SVG Export Plug-In . SVG Version: 6.00 Build 0)  -->
<svg version="1.1" xmlns="http://www.w3.org/2000/svg" xmlns:xlink="http://www.w3.org/1999/xlink" x="0px" y="0px"
	 viewBox="0 0 1920 1080" style="enable-background:new 0 0 1920 1080;" xml:space="preserve">
<style type="text/css">
	.st0{fill:#F78E1E;}
	.st1{font-family:'Knewave-Regular';}
	.st2{font-size:125px;}
	.st3{font-size:72px;}
	.st4{fill:#263238;}
	@import url('href="https://fonts.googleapis.com/css?family=Knewave"');
</style>
<g id="title_x5F_1">
	<text transform="matrix(1 0 0 1 324.1908 351.2303)" style="font-family:Knewave" class="st0 st1 st2">Salamander.</text>
</g>
<g id="title_x5F_2">
	<text transform="matrix(1 0 0 1 1031.4481 355.23)" style="font-family:Knewave" class="st0 st1 st2">Ninja</text>
</g>
<g id="slogan">
	<text transform="matrix(1 0 0 1 749.8829 499.7369)" style="font-family:Knewave" class="st0 st1 st3">The Agile World Creator</text>
</g>
<g id="body">
	<path class="st0" d="M1555.1,470.6c-7.2-19.3-15.8-37.2-24.9-53.4c30.5-1.8,47.9-20.3,47.9-20.3s-81.2-41.5-47.3-104.4
		c33.9-63-7.1-101.2-7.1-101.2s-40.2,82.3-103.1,48.5c-62.9-33.9-101.2,7.1-101.2,7.1s80.3,40.2,46.4,103.2
		c-33.9,63,7.8,100.1,7.8,100.1s40.2-80.3,103.2-46.4c12.5,6.7,24,10.5,34.5,12.2c13.3,28.1,25.1,62.8,30.9,103.7
		c11.6,82.8-13.5,143.6-28.5,162.8c-14.4,18.4-32.5,26.4-32.5,26.4c-5.1,2.2-12.8,4.9-23.6,6.2c-11.2,1.3-23.4,0.9-36-0.6
		c2.5-5.4,3.9-11,3.2-16.1c-1.7-10.1-23.9-32.3-26.9-40.2c-3.2-7.9,0.5-13.8-5.4-23.8c-6-10-3,25-5.1,17.4
		c-2.1-7.4-12.7-29.6-15-23.9c-2.5,5.5,13.9,31,1.1,20.4c-12.7-10.6-19-13.3-20.4-10.6s18.2,17.7,15.2,18.7c-3,1-13.3-3.5-17.6,0.3
		c-4.3,3.8,16.8,7,19,8.9c2.2,1.9,1,7.4,18.1,23c15.4,14,4.4,19.1,2,20c-37.6-9.2-75.2-25.6-99.1-39c-4-2.2-17.7-10-37.2-18.4
		c-5.5-2.4-11.6-4.8-18.4-7.1c-20.6-7.3-32.5-11.6-50-14.1c-4.4-0.6-7.5-1.1-9.8-1.6c7.2-4.4,15.7-13.5,13.3-32.1
		c0-1.1-0.2-2.1-0.3-2.7c-0.3-1.7-0.6-3-0.6-3.3c-4.1-20.6-1.3-29.1-1.3-29.1c1.7-5.4,3.8-5.5,7.3-14.3c1.3-3,2.2-6.2,2.5-9.5
		c0-0.3,0.2-2.2,0.3-5.7c0-0.8,0-1.7,0-2.9c0-0.5,0-1.1,0-1.7c-0.2-2.2-0.3-9.8-2.2-10.1c-1-0.2-1.9,1.3-2.4,2.4
		c-1.1,2.4,0.3,4,0.2,6.8c-0.2,4-2.9,7.4-4.1,7.3c-1.1-0.2-1.9-2.2-3.5-6.5c-3.2-8.2-8.6-17.1-11.9-16.3c-0.5,0.2-0.9,0.6-1.3,1.1
		c-1,2.1,2.5,4.4,5.4,9.3c1,1.9,4.9,5.5,3.3,11.2c-0.2,0.8-1.1,4.3-3.2,4.6c-2.1,0.3-4.1-2.7-6-5.7c-1-1.4-19.5-21.4-21.4-17.1
		c-1.9,4.3,17.6,18.1,15.2,21.9c-2.4,4-21.4-6.2-26.3-1.9c-0.3,0.2-1.1,1-1,1.6c0.2,1.6,4.6,1.9,7.8,2.2c2.9,0.6,4.9,1.1,6.5,1.7
		c1.9,0.6,3.3,1.3,3.6,1.4c2.7,1.1,6.2,2.7,8.4,5.2c2.5,2.9,2.9,6.3,3,8.7c2.2,25.8,3.5,36.6,1.1,43.2c-4,11.5-15,17.5-21.1,20.2
		c-7-3.4-11.3-6.5-13.2-7.8c-5.1-3.8-8.9-7.3-10.8-9.2c-2.1-2.1-6.7-6.8-11.4-13.9c-4.3-6.3-6.7-11.4-7.3-12.8
		c-5.1-10.6-19.5-27.6-37.1-36.3c-21.5-10.8-55.7-13-68.6,4.4c-4.4,5.9-5.1,12-5.9,20.1c-2.5,27.2,10.1,49.1,14.3,55.6
		c1.4,2.4,3.2,4.8,5.2,7.1c0,0,2.5,3,5.7,5.5c9.7,8.1,36.9,22.8,36.9,22.8s21.5,11.5,38,26c-2.7,6.3-7.6,14.2-16.1,18.4
		c-6.5,3-17.3,3-43.1,3.5c-2.4,0-5.9,0.2-9-2.1c-2.7-1.9-4.8-5.2-6.2-7.8c-0.2-0.3-1-1.7-1.9-3.5c-0.8-1.6-1.6-3.5-2.4-6.2
		c-0.8-3-1.4-7.4-3-7.6c-0.6,0-1.3,0.8-1.6,1.1c-3.8,5.2,8.4,23.1,4.6,26c-3.5,2.7-19.3-15.2-23.3-12.8
		c-4.1,2.4,17.7,18.7,19.3,19.5c3.2,1.6,6.5,3.3,6.3,5.4c-0.2,2.1-3.5,3.3-4.3,3.6c-5.5,2.2-9.7-1.3-11.6-2.1
		c-5.2-2.2-7.9-5.5-9.8-4.3c-0.5,0.3-0.8,0.8-1,1.4c-0.5,3.3,8.9,7.8,17.6,10.1c4.4,1.1,6.5,1.7,6.8,2.9c0.3,1.3-2.9,4.3-6.8,4.9
		c-2.7,0.3-4.4-0.8-6.8,0.5c-1,0.5-2.4,1.7-2.1,2.5c0.5,1.9,8.1,1.1,10.3,1.1c0.6,0,1.3,0,1.7-0.2c1.1-0.2,2.1-0.2,2.9-0.3
		c3.5-0.5,5.2-0.8,5.5-0.8c3.2-0.6,6.3-2.1,9.2-3.5c8.2-4.3,8.2-6.3,13.5-8.7c0,0,8.1-3.8,29.1-1.7c0.3,0,1.6,0.2,3.3,0.3
		c0.8,0,1.6,0.2,2.7,0.2c23.2,0,30.4-14.6,32.5-22.2c1,1.3,1.4,1.9,1.4,1.9c0.5,0.8,2.1,2.9,4.4,5.5c0.5,0.6,1.9,2.2,4,4
		c5.1,4.8,11.7,9.7,19.2,15c3.3,2.4,5.9,4.1,8.4,5.9c12.8,8.9,97.5,66.7,221,67.3c1.8,3.7,3,11.1-13.7,13.6
		c-23,3.6-24.9,8.9-27.7,9.2c-2.9,0.3-22.2-8.6-20.7-3c1.4,5.5,12.5,7.4,14.6,9.8c1.9,2.4-22.8,4.1-23,7.3c-0.2,3,6.5,4.3,23,2.4
		s-11.1,10.5-12.2,16.5c-1.1,6,19.8-6.5,25.8-11.7c5.9-5.2-15.8,22.3-5.4,17.3c10.5-5.1,10.6-12,17.6-16.9
		c6.8-4.9,37.7-11.2,44.5-18.8c5.6-6.1,7.1-17,6.8-26.4c4.8-0.3,9.7-0.7,14.6-1.3c35.8-7.6,83.8-16.9,119.2-57.8
		c30.6-35.8,38.5-79.7,43.1-104.8c1.9-10.3,7.3-43.4,1.7-86C1574.3,537.1,1569.4,509.1,1555.1,470.6z"/>
</g>
<g id="spot_x5F_1">
	<g id="Layer_18">
		
			<ellipse transform="matrix(0.9741 -0.2263 0.2263 0.9741 -128.4842 295.1254)" class="st4" cx="1223" cy="708" rx="32.9" ry="32.9"/>
	</g>
</g>
<g id="spot_x5F_2">
	<g id="Layer_17">
		
			<ellipse transform="matrix(0.9741 -0.2263 0.2263 0.9741 -133.9443 315.2842)" class="st4" cx="1308.2" cy="741.9" rx="31.2" ry="31.2"/>
	</g>
</g>
<g id="spot_x5F_3">
	<g id="Layer_16">
		
			<ellipse transform="matrix(0.9741 -0.2263 0.2263 0.9741 -134.501 334.8111)" class="st4" cx="1393.1" cy="754.1" rx="26.9" ry="26.9"/>
	</g>
</g>
<g id="spot_x5F_4">
	<g id="Layer_15">
		
			<ellipse transform="matrix(0.9741 -0.2263 0.2263 0.9741 -131.5639 349.9707)" class="st4" cx="1460.7" cy="748.8" rx="23.6" ry="23.6"/>
	</g>
</g>
<g id="spot_x5F_5">
	<g id="Layer_14">
		
			<ellipse transform="matrix(0.9741 -0.2263 0.2263 0.9741 -123.0375 361.3433)" class="st4" cx="1514.6" cy="717.3" rx="19.6" ry="19.6"/>
	</g>
</g>
<g id="spot_x5F_6">
	<g id="Layer_13">
		
			<ellipse transform="matrix(0.9741 -0.2263 0.2263 0.9741 -111.583 366.6026)" class="st4" cx="1543.2" cy="670" rx="13.9" ry="13.9"/>
	</g>
</g>
<g id="spot_x5F_7">
	<g id="Layer_12">
		
			<ellipse transform="matrix(0.9741 -0.2263 0.2263 0.9741 -98.652 368.5346)" class="st4" cx="1558.1" cy="614.6" rx="12" ry="12"/>
	</g>
</g>
<g id="spot_x5F_8">
	<g id="Layer_11">
		
			<ellipse transform="matrix(0.9741 -0.2263 0.2263 0.9741 -84.407 367.3681)" class="st4" cx="1560.2" cy="551.8" rx="12" ry="12"/>
	</g>
</g>
<g id="spot_x5F_9">
	<g id="Layer_10">
		
			<ellipse transform="matrix(0.9741 -0.2263 0.2263 0.9741 -69.6766 362.8479)" class="st4" cx="1547.8" cy="485.3" rx="9.7" ry="9.7"/>
	</g>
</g>
<g id="spot_x5F_10">
	<g id="Layer_9">
		
			<ellipse transform="matrix(0.9741 -0.2263 0.2263 0.9741 -57.243 356.3806)" class="st4" cx="1525.8" cy="427.9" rx="6.3" ry="6.3"/>
	</g>
</g>
<g id="headgear">
	<path class="st4" d="M1289.7,591.6c-12.5-6-23.4-7-27.4-7.3c-44.2-3.5-75.4,11.6-100.7,15.4c-22.4,3.5-55.5,0.3-100.4-30.6
		c11.2-12.6,18.2-21.5,18.2-22.4c0-2.1-1.9-3.3-12.7-8.1S991.4,583,998.1,603c6.8,20,11.4,19.6,11.4,19.6
		c8.3-7.8,16.5-15.9,24.1-23.8c5.1,10.6,12.6,21.6,23.5,30.9c15,12.5,30.2,16.8,52.7,22.8c22.6,6.2,43.7,11.9,70.5,8.2
		c23.1-3.2,70-16,79.5-13c0.5,0,1.7,0.2,2.7-0.2c5.1-1.9,4.6-14.6-6.8-17.9c-14.1-4-30.2,5.2-67.9,10c-20.1,2.5-35.8,1-42.9,0.2
		c-19.5-2.2-43.9-4.9-66.4-21.9c-7.6-5.7-13.7-12-18.6-18.5c14.5,12.1,27.8,17.8,38.1,20.7c26.3,7.4,53,2.7,106.7-7.1
		c14.1-2.5,51.5-9.7,76.6-0.2c4,1.6,13.6,5.2,22.2,14.7c6.3,7,9.3,14.4,10.9,19c2.5,4.1,9.8-5.4,10.8-10.9
		C1328.2,619.8,1308.6,600.6,1289.7,591.6z"/>
</g>
<g id="x">
	<g id="Layer_2">
		<path class="st4" d="M1403.4,261.9c32.1,16.3,43.7,32.8,49.2,40.9c0.6-0.5,1.1-1,1.9-1.6c18.1-11.9,23.6-37.4,31.5-39.6
			c7.9-2.4,26,9.2,23,15.2c-16.3,32.1-32.8,43.7-40.9,49.2c0.5,0.6,1,1.1,1.6,1.9c11.9,18.1,37.4,23.6,39.6,31.5
			c2.4,7.9-9.2,26-15.2,23c-32.1-16.3-43.7-32.8-49.2-40.9c-0.6,0.5-1.1,1-1.9,1.6c-18.1,11.9-23.6,37.4-31.5,39.6
			c-7.9,2.4-26-9.2-23-15.2c16.3-32.1,32.8-43.7,40.9-49.2c-0.5-0.6-1-1.1-1.6-1.9c-11.9-18.1-37.4-23.6-39.6-31.5
			C1385.9,276.8,1397.4,258.7,1403.4,261.9z"/>
	</g>
</g>
</svg>
